# xmcd
#
# Track frame offsets:
#  150
#  10500
#  23725
#  35940
#  47511
#  60109
#  72236
#  83408
#  95830
#  109265
#  120745
#  133191
#  145820
#  158510
#  170192
#  183687
#  195477
#  206573
#  218944
#  232029
#  244285
#  256426
#  268476
#
# Disc length: 3716 seconds
#
# Revision: 0
# Processed by: cddbd v1.5PL3 Copyright (c) Steve Scherf et al.
# Submitted via: AltoMP3_Maker 3.0
#
DISCID=540e8217
DTITLE=Lightnin Hopkins - Lightnin´s Boogie
DYEAR=1900
DGENRE=
TTITLE0=Down Baby
TTITLE1=L.a. Blues
TTITLE2=Big Mama Jump
TTITLE3=Let Me Play With Your Poodle
TTITLE4=Morning Blues
TTITLE5=Mistreated Blues
TTITLE6=Daddy Will Be Home One Day
TTITLE7=Howling Wolf
TTITLE8=Moon Rise Blues
TTITLE9=Baby You´re Not Going To Make A Fool Out Of Me
TTITLE10=Mama´s Baby Child
TTITLE11=So Long
TTITLE12=I Just Don´t Care
TTITLE13=Honey Babe
TTITLE14=Unpredictable Woman
TTITLE15=See See Rider
TTITLE16=Abilene
TTITLE17=Rollin´and Rollin
TTITLE18=Drinkin´ Woman
TTITLE19=Miss Loretta
TTITLE20=Shotgun
TTITLE21=Tell It Like It Is
TTITLE22=Lightnin´s Boogie
EXTD=
EXTT0=
EXTT1=
EXTT2=
EXTT3=
EXTT4=
EXTT5=
EXTT6=
EXTT7=
EXTT8=
EXTT9=
EXTT10=
EXTT11=
EXTT12=
EXTT13=
EXTT14=
EXTT15=
EXTT16=
EXTT17=
EXTT18=
EXTT19=
EXTT20=
EXTT21=
EXTT22=
PLAYORDER=
